<svg width="126" height="53" viewBox="0 0 126 53" fill="none" xmlns="http://www.w3.org/2000/svg">
<path d="M64.5154 22.1545C64.4346 22.0687 64.3945 21.9407 64.3945 21.7705V13.1294C64.3945 12.949 64.4346 12.8163 64.5154 12.7305C64.5955 12.6454 64.7305 12.6025 64.9199 12.6025H68.5542C69.7183 12.6025 70.5817 12.8803 71.1451 13.4357C71.7078 13.9911 71.9895 14.7855 71.9895 15.8201C71.9895 16.8547 71.7078 17.6327 71.1451 18.1834C70.5817 18.7341 69.7183 19.0091 68.5542 19.0091H66.2116V21.7705C66.2116 21.9414 66.1709 22.0694 66.0908 22.1545C66.0101 22.2402 65.8709 22.2824 65.672 22.2824H64.9199C64.7305 22.2824 64.5955 22.2395 64.5154 22.1545ZM68.4693 17.6273C69.0463 17.6273 69.4773 17.4782 69.761 17.1787C70.0448 16.8799 70.1873 16.4266 70.1873 15.8194C70.1873 15.2122 70.0455 14.7446 69.761 14.4458C69.4773 14.147 69.0463 13.9972 68.4693 13.9972H66.2123V17.6273H68.4693Z" fill="white"/>
<path d="M76.9099 22.1545C76.8291 22.0687 76.7891 21.9407 76.7891 21.7706V13.1294C76.7891 12.949 76.8291 12.8163 76.9099 12.7305C76.99 12.6454 77.1251 12.6025 77.3144 12.6025H81.0193C82.1169 12.6025 82.9525 12.8592 83.5254 13.371C84.0976 13.8836 84.384 14.6432 84.384 15.6492C84.384 16.3136 84.2279 16.8806 83.9157 17.3502C83.6034 17.8199 83.1493 18.1739 82.5527 18.4107L84.1281 21.9128C84.1567 21.9693 84.1709 22.0217 84.1709 22.0694C84.1709 22.2116 84.0861 22.2831 83.9157 22.2831H82.7516C82.6287 22.2831 82.5384 22.2668 82.4821 22.2334C82.4251 22.2001 82.3728 22.1313 82.326 22.0272L80.8924 18.6531H78.6069V21.7706C78.6069 21.9414 78.5661 22.0694 78.486 22.1545C78.4053 22.2402 78.2661 22.2824 78.0672 22.2824H77.3151C77.1257 22.2824 76.9907 22.2395 76.9106 22.1545H76.9099ZM80.6507 17.2856C81.3132 17.2856 81.8006 17.1576 82.1128 16.9017C82.4251 16.6457 82.5812 16.2278 82.5812 15.6492C82.5812 15.0707 82.4393 14.6623 82.1549 14.3961C81.8712 14.1307 81.4401 13.9979 80.8632 13.9979H78.6062V17.2863H80.6507V17.2856Z" fill="white"/>
<path d="M90.4361 21.1716C89.5985 20.2888 89.1797 19.0459 89.1797 17.4422C89.1797 15.8385 89.5985 14.5949 90.4361 13.7121C91.2737 12.8293 92.4732 12.3882 94.0351 12.3882C95.597 12.3882 96.7842 12.8293 97.6265 13.7121C98.4689 14.5949 98.8898 15.8385 98.8898 17.4422C98.8898 19.0459 98.4682 20.2895 97.6265 21.1716C96.7842 22.0544 95.5868 22.4955 94.0351 22.4955C92.4834 22.4955 91.2737 22.0544 90.4361 21.1716ZM96.3063 20.2112C96.8269 19.5802 97.0869 18.6572 97.0869 17.4422C97.0869 16.2272 96.8263 15.3069 96.3063 14.6807C95.7864 14.0545 95.0288 13.7407 94.0351 13.7407C93.0413 13.7407 92.2818 14.0538 91.7564 14.6807C91.231 15.3069 90.9683 16.2279 90.9683 17.4422C90.9683 18.6565 91.231 19.5802 91.7564 20.2112C92.2818 20.8422 93.0413 21.158 94.0351 21.158C95.0288 21.158 95.7857 20.8428 96.3063 20.2112Z" fill="white"/>
<path d="M68.0212 39.2946C67.9595 39.2469 67.9004 39.1523 67.8434 39.01L64.1521 30.0844C64.1236 30.0272 64.1094 29.9707 64.1094 29.9135C64.1094 29.8475 64.1304 29.7923 64.1732 29.7501C64.2159 29.7073 64.275 29.6862 64.3503 29.6862H65.5715C65.6943 29.6862 65.7894 29.71 65.8552 29.7576C65.9217 29.8053 65.9733 29.8808 66.0113 29.9857L68.6946 36.8189L71.3779 29.9857C71.4159 29.8815 71.4675 29.8053 71.534 29.7576C71.5998 29.71 71.6949 29.6862 71.8177 29.6862H73.0389C73.1142 29.6862 73.1739 29.7073 73.216 29.7501C73.2588 29.793 73.2798 29.8475 73.2798 29.9135C73.2798 29.9707 73.2656 30.0272 73.2371 30.0844L69.5601 39.01C69.503 39.1523 69.442 39.2476 69.3754 39.2946C69.3089 39.3422 69.2098 39.3654 69.0774 39.3654H68.3111C68.178 39.3654 68.0817 39.3422 68.0199 39.2946H68.0212Z" fill="white"/>
<path d="M78.2693 39.2373C78.1885 39.1516 78.1484 39.0236 78.1484 38.8534V30.2123C78.1484 30.0319 78.1885 29.8992 78.2693 29.8134C78.3494 29.7283 78.4844 29.6854 78.6738 29.6854H84.5793C84.7687 29.6854 84.899 29.7235 84.9696 29.7991C85.0409 29.8753 85.0762 30.0033 85.0762 30.1837V30.5676C85.0762 30.748 85.0409 30.8786 84.9696 30.959C84.8983 31.0393 84.7687 31.0801 84.5793 31.0801H79.9656V33.8416H83.3161C83.5054 33.8416 83.6378 33.8797 83.7138 33.9553C83.7892 34.0315 83.8279 34.1595 83.8279 34.3392V34.6952C83.8279 34.8756 83.7899 35.0063 83.7138 35.0866C83.6378 35.1676 83.5054 35.2077 83.3161 35.2077H79.9656V37.9835H84.565C84.7544 37.9835 84.8868 38.0244 84.9628 38.1047C85.0382 38.1857 85.0762 38.3157 85.0762 38.4961V38.8807C85.0762 39.0515 85.0382 39.1747 84.9628 39.251C84.8868 39.3272 84.7544 39.3646 84.565 39.3646H78.6738C78.4844 39.3646 78.3494 39.3217 78.2693 39.2367V39.2373Z" fill="white"/>
<path d="M90.1404 39.2373C90.0596 39.1516 90.0195 39.0236 90.0195 38.8534V30.2123C90.0195 30.0319 90.0596 29.8992 90.1404 29.8134C90.2205 29.7283 90.3555 29.6854 90.5449 29.6854H93.3843C94.9835 29.6854 96.2067 30.07 97.0538 30.8385C97.901 31.607 98.3245 32.8363 98.3245 34.5257C98.3245 37.7528 96.6778 39.366 93.3843 39.366H90.5449C90.3555 39.366 90.2205 39.3231 90.1404 39.238V39.2373ZM93.4983 37.9849C94.5016 37.9849 95.2564 37.7242 95.7628 37.2021C96.2692 36.68 96.5223 35.7877 96.5223 34.5257C96.5223 33.2637 96.2692 32.3741 95.7628 31.8568C95.2564 31.3395 94.5016 31.0808 93.4983 31.0808H91.8373V37.9849H93.4983Z" fill="white"/>
<path d="M104.378 38.2552C103.54 37.3724 103.121 36.1295 103.121 34.5258C103.121 32.9221 103.54 31.6785 104.378 30.7957C105.215 29.9129 106.415 29.4718 107.976 29.4718C109.538 29.4718 110.726 29.9129 111.568 30.7957C112.41 31.6785 112.831 32.9221 112.831 34.5258C112.831 36.1295 112.41 37.3731 111.568 38.2552C110.726 39.1381 109.528 39.5791 107.976 39.5791C106.425 39.5791 105.215 39.1381 104.378 38.2552ZM110.248 37.2941C110.768 36.6631 111.028 35.7401 111.028 34.5251C111.028 33.3101 110.768 32.3899 110.248 31.7636C109.727 31.1374 108.97 30.8236 107.976 30.8236C106.983 30.8236 106.223 31.1367 105.698 31.7636C105.172 32.3899 104.91 33.3108 104.91 34.5251C104.91 35.7395 105.172 36.6631 105.698 37.2941C106.223 37.9251 106.983 38.2409 107.976 38.2409C108.97 38.2409 109.727 37.9258 110.248 37.2941Z" fill="white"/>
<path d="M118.035 39.2373C117.954 39.1516 117.914 39.0236 117.914 38.8534V30.2123C117.914 30.0319 117.954 29.8992 118.035 29.8134C118.115 29.7283 118.25 29.6854 118.439 29.6854H122.144C123.242 29.6854 124.077 29.942 124.65 30.4539C125.223 30.9665 125.508 31.7261 125.508 32.7321C125.508 33.3965 125.353 33.9635 125.04 34.4331C124.728 34.9028 124.274 35.2568 123.677 35.4936L125.252 38.9957C125.281 39.0522 125.295 39.1046 125.295 39.1523C125.295 39.2945 125.21 39.366 125.04 39.366H123.876C123.752 39.366 123.663 39.3496 123.606 39.3163C123.549 39.2829 123.497 39.2142 123.45 39.1101L122.017 35.7359H119.731V38.8534C119.731 39.0243 119.69 39.1523 119.61 39.2373C119.53 39.3231 119.39 39.3653 119.192 39.3653H118.439C118.249 39.3653 118.114 39.3224 118.034 39.2373H118.035ZM121.775 34.3685C122.438 34.3685 122.926 34.2405 123.238 33.9846C123.55 33.7286 123.706 33.3107 123.706 32.7321C123.706 32.1536 123.564 31.7451 123.28 31.479C122.996 31.2135 122.566 31.0808 121.988 31.0808H119.731V34.3691H121.775V34.3685Z" fill="white"/>
<path d="M0 0V52.0975H51.9532V0H0ZM15.7249 32.8324H12.0105C12.0105 32.8324 12.0105 24.9427 12.02 21.2575C12.0227 20.0738 12.7925 19.306 13.9702 19.2747C14.3659 19.2638 15.7228 19.2733 15.7228 19.2733L15.7242 19.8417C15.7242 19.8417 15.7255 23.678 15.7255 25.5961V26.0481C15.7255 28.1166 15.7269 30.7638 15.7242 32.8324H15.7249ZM28.7149 32.829L25.0616 32.831L22.8447 29.1091C22.8447 29.1091 21.2427 31.8454 20.678 32.831L16.3738 32.833L16.6629 32.328C17.8583 30.3629 20.5606 25.8582 20.5606 25.8582L16.3276 19.2726H18.5452C19.1052 19.2726 20.2259 19.2699 20.2259 19.2699L20.678 19.2726L22.8447 23.0286C22.8447 23.0286 23.9206 21.1874 24.2898 20.4849C24.7317 19.645 25.3963 19.2413 26.3452 19.2672C27.1238 19.2883 29.3448 19.2726 29.3448 19.2726L25.1118 25.8582L29.3108 32.831L28.7149 32.829ZM31.2386 26.2686C31.2841 27.0085 31.3778 27.7389 31.7287 28.4127C32.1855 29.2894 33.1582 29.8122 34.19 29.7162C35.329 29.61 35.9514 29.0859 36.2521 27.9791C36.2739 27.9002 36.3085 27.7395 36.3085 27.7395C36.3085 27.7395 36.3655 27.4577 36.3655 27.3733H36.7348L36.7314 27.3761L39.5993 27.3727L39.9427 27.374C39.9427 27.5762 39.919 27.7777 39.9013 27.9785C39.883 28.1827 39.8606 28.3875 39.828 28.5897C39.5477 30.305 38.691 31.6119 37.1298 32.428C36.4035 32.8079 35.5849 33.0114 34.7758 33.1162C33.0863 33.3347 31.3078 32.9957 29.9245 31.9625C28.8744 31.1783 28.2159 30.0137 27.8718 28.7633C27.4476 27.2202 27.4272 25.6506 27.7082 24.0816C27.9057 22.9809 28.3096 21.9034 29.0271 21.0349C30.0358 19.8138 31.5617 19.1515 33.1026 18.9697C33.6198 18.9085 34.1431 18.901 34.6611 18.9452C34.9061 18.9663 35.145 19.0085 35.3874 19.0494C35.6168 19.0882 35.8442 19.1372 36.0689 19.1971C36.282 19.2543 36.4931 19.3223 36.6995 19.402C36.8956 19.4775 37.0884 19.564 37.2744 19.662C37.4536 19.7559 37.6274 19.8601 37.7944 19.9751C37.9566 20.0867 38.1114 20.2086 38.2586 20.3399C38.4032 20.4693 38.5397 20.6081 38.6666 20.7545C38.7935 20.9008 38.911 21.056 39.0182 21.2173C39.1268 21.3807 39.2252 21.5515 39.3135 21.7271C39.4038 21.9075 39.4832 22.0927 39.5524 22.2819C39.6237 22.4779 39.6841 22.678 39.7343 22.8802C39.7866 23.0912 39.828 23.3049 39.8592 23.5207C39.8966 23.7794 39.9149 24.038 39.9298 24.2987C39.9346 24.3859 39.9393 24.4723 39.9434 24.5594L39.4533 24.5662C39.4533 24.5662 38.4426 24.5656 37.9376 24.5628C37.0884 24.5588 36.4239 24.2232 36.0356 23.4431C35.7329 22.8339 35.2469 22.5399 34.5857 22.4507C32.8935 22.2227 31.7986 22.9449 31.3981 24.5962C31.2658 25.1428 31.2053 25.7043 31.2393 26.2666V26.2686H31.2386Z" fill="white"/>
<path d="M121.184 17.2346H105.533C105.159 17.2346 104.855 17.5388 104.855 17.9139V18.0698C104.855 18.445 105.159 18.7491 105.533 18.7491H121.184C121.558 18.7491 121.861 18.445 121.861 18.0698V17.9139C121.861 17.5388 121.558 17.2346 121.184 17.2346Z" fill="white"/>
</svg>
