<svg width="162" height="45" viewBox="0 0 162 45" fill="none" xmlns="http://www.w3.org/2000/svg">
<path d="M56.6337 0H45.6944C43.2933 0 41.4191 1.04921 40.2676 3.03653L35.1838 11.8375L28.336 0H13.7461L27.601 21.7124L13.8441 44.3012H28.336L35.2083 32.5254L42.1786 44.3012H56.5479L42.7911 21.7124L56.6337 0Z" fill="white"/>
<path d="M1.83751 1.85154C0.637005 3.06122 0 4.61651 0 6.33228V44.3012H12.4584V0H6.2843C4.58154 0 3.03802 0.641868 1.83751 1.85154Z" fill="white"/>
<path d="M78.0947 27.6744C77.617 29.6617 76.8697 31.0689 75.853 31.8589C74.6892 32.7723 73.1825 33.2043 71.2592 33.2043C68.5397 33.2043 66.6409 32.365 65.2567 30.5628C63.7866 28.6372 63.0394 25.8352 63.0394 22.2555C63.0394 18.4167 63.7744 15.5653 65.2199 13.7755C66.6287 12.035 68.6744 11.1957 71.4675 11.1957C73.5622 11.1957 75.0812 11.5907 75.9755 12.3683C76.4777 12.8127 76.9432 13.4422 77.372 14.2939C78.5113 16.5528 80.4345 17.7501 82.9335 17.7501H89.8916L89.6956 15.5283C89.2791 10.6772 87.4906 6.85071 84.3668 4.1598C81.1695 1.39483 76.833 0 71.4675 0C64.9871 0 59.8911 1.97498 56.3141 5.87556C52.884 9.61568 51.1445 15.1209 51.1445 22.2555C51.1445 29.3901 52.835 34.6238 56.1793 38.3886C59.6584 42.3016 64.5829 44.2889 70.8182 44.2889C76.2817 44.2889 80.7285 42.8941 84.0238 40.1538C87.3803 37.3641 89.2913 33.3771 89.7078 28.3039L89.8916 26.0821H78.4745L78.0947 27.6497V27.6744Z" fill="white"/>
<path d="M143.987 20.404V15.6764H139.944C137.127 15.6764 134.836 17.9846 134.836 20.8237V44.3136H140.434V27.625H141.255C141.978 27.625 142.603 27.3658 143.154 26.835C143.705 26.3166 143.975 25.6253 143.975 24.7983V23.5516H140.434V21.6754C140.434 20.9841 140.985 20.4287 141.671 20.4163L143.975 20.3917L143.987 20.404Z" fill="white"/>
<path d="M154.693 44.3013H150.663C147.845 44.3013 145.555 41.993 145.555 39.154V15.6641H148.421C148.74 15.6641 149.046 15.7258 149.34 15.8369C149.695 15.9727 150.014 16.1948 150.32 16.4911C150.871 17.0465 151.141 17.7131 151.141 18.4784V22.0457V23.5393H154.681V24.786C154.681 25.613 154.412 26.2919 153.86 26.8227C153.309 27.3411 152.684 27.6127 151.961 27.6127H151.141V38.3023C151.141 38.9935 151.704 39.5613 152.39 39.5613H154.681" fill="white"/>
<path d="M92.6104 36.5864H98.2087C98.2577 37.685 98.6742 38.5244 99.4337 39.0799C100.267 39.6353 101.357 39.9069 102.729 39.9069C103.721 39.9069 104.567 39.7217 105.277 39.3267C105.939 38.9317 106.269 38.4133 106.269 37.7468C106.269 36.3396 104.211 35.8582 103.17 35.599C100.879 35.0188 98.564 34.6485 96.4325 33.587C95.82 33.2784 95.2197 32.9204 94.7297 32.4267C93.6394 31.4268 93.0882 30.1061 93.0882 28.4397C93.0882 26.3413 93.8844 24.5885 95.477 23.2183C97.1307 21.9469 99.2622 21.3051 101.896 21.3051C104.763 21.3051 107.029 21.9469 108.732 23.206C110.324 24.5885 111.182 26.3906 111.28 28.6001H107.739C107.237 28.6001 106.735 28.489 106.306 28.2175C105.632 27.7978 105.326 26.9955 104.689 26.5264C104.028 26.0327 102.974 25.65 101.823 25.65C100.585 25.65 98.6742 26.0203 98.7232 27.4769C98.7477 28.2175 99.1275 28.5631 99.593 28.8593C100.353 29.3284 101.21 29.5629 102.068 29.7851C104.787 30.5134 107.629 30.822 109.993 32.4884C110.153 32.5995 110.3 32.7106 110.447 32.834C111.488 33.8338 112.015 35.1669 112.015 36.821C112.015 39.2527 111.133 41.1412 109.381 42.462C107.739 43.684 105.265 44.2889 101.97 44.2889C98.6742 44.2889 96.506 43.647 94.9747 42.3756C93.3822 41.1042 92.5859 39.2527 92.5859 36.821V36.5741L92.6104 36.5864Z" fill="white"/>
<path d="M158.677 15.6641C157.329 15.6641 156.227 16.775 156.227 18.1328C156.227 19.4906 157.329 20.6015 158.677 20.6015C160.024 20.6015 161.127 19.4906 161.127 18.1328C161.127 16.775 160.024 15.6641 158.677 15.6641ZM158.677 20.0584C157.623 20.0584 156.766 19.1943 156.766 18.1328C156.766 17.0712 157.623 16.2072 158.677 16.2072C159.73 16.2072 160.588 17.0712 160.588 18.1328C160.588 19.1943 159.73 20.0584 158.677 20.0584Z" fill="white"/>
<path d="M159.752 17.7871C159.752 17.3427 159.446 16.9847 158.919 16.9847H157.719V19.3917H158.331V18.5771H158.65L159.054 19.3917H159.765L159.274 18.503C159.495 18.4289 159.752 18.1944 159.752 17.7871ZM158.833 18.0463H158.343V17.5279H158.833C158.993 17.5279 159.128 17.6266 159.128 17.7871C159.128 17.9475 158.993 18.0463 158.833 18.0463Z" fill="white"/>
<path d="M133.28 32.4143C133.28 32.3402 133.28 32.2785 133.28 32.2045C133.28 32.0934 133.28 31.9699 133.268 31.8588C133.268 31.8095 133.268 31.7724 133.268 31.7231C133.268 31.612 133.255 31.5009 133.243 31.3898C133.243 31.291 133.231 31.1923 133.219 31.0935C133.219 31.0195 133.206 30.9454 133.194 30.8714C133.182 30.7232 133.157 30.5751 133.145 30.4393C133.145 30.3776 133.133 30.3159 133.121 30.2542C133.108 30.1678 133.096 30.0814 133.084 29.9826C132.863 28.6495 132.471 27.4151 131.896 26.3042C130.903 24.2552 129.372 22.811 127.289 21.984C126.518 21.7 125.697 21.5026 124.852 21.4038C124.288 21.3421 123.749 21.3051 123.21 21.3051C122.683 21.3051 122.132 21.3421 121.569 21.4038C120.711 21.5149 119.903 21.7 119.131 21.984C117.048 22.811 115.517 24.2552 114.525 26.3042C113.961 27.4151 113.557 28.6372 113.337 29.9826C113.324 30.069 113.312 30.1554 113.3 30.2542C113.3 30.3159 113.288 30.3776 113.275 30.4393C113.251 30.5875 113.239 30.7356 113.226 30.8714C113.226 30.9454 113.214 31.0195 113.202 31.0935C113.202 31.1923 113.19 31.291 113.177 31.3898C113.177 31.5009 113.165 31.612 113.153 31.7231C113.153 31.7724 113.153 31.8095 113.153 31.8588C113.153 31.9699 113.153 32.0934 113.141 32.2045C113.141 32.2785 113.141 32.3402 113.141 32.4143C113.141 32.4884 113.141 32.5748 113.141 32.6488C113.141 34.1671 113.324 35.6483 113.667 37.0679C113.68 37.1296 113.704 37.1913 113.716 37.253C114.108 38.5244 114.598 39.6106 115.199 40.4994C115.909 41.4869 116.742 42.2769 117.673 42.857C118.543 43.3631 119.572 43.7581 120.76 44.0173C121.544 44.1901 122.328 44.2889 123.1 44.2889C123.149 44.2889 123.186 44.2889 123.235 44.2889C123.284 44.2889 123.32 44.2889 123.369 44.2889C124.141 44.2889 124.925 44.1901 125.709 44.0173C126.897 43.7457 127.914 43.3631 128.796 42.857C129.727 42.2769 130.548 41.4869 131.271 40.4994C131.871 39.6106 132.361 38.5367 132.753 37.253C132.778 37.1913 132.79 37.1296 132.802 37.0679C133.145 35.6483 133.317 34.1671 133.329 32.6488C133.329 32.5748 133.329 32.4884 133.329 32.4143H133.28ZM127.449 35.2287C127.449 35.2287 127.436 35.3027 127.424 35.3397C127.253 36.068 127.032 36.6852 126.763 37.1913C126.444 37.7591 126.077 38.2035 125.66 38.5367C125.268 38.8206 124.815 39.0428 124.288 39.2033C123.945 39.302 123.59 39.3514 123.247 39.3638C123.222 39.3638 123.21 39.3638 123.186 39.3638C123.161 39.3638 123.149 39.3638 123.124 39.3638C122.781 39.3638 122.426 39.302 122.083 39.2033C121.556 39.0552 121.103 38.833 120.711 38.5367C120.295 38.2035 119.927 37.7591 119.609 37.1913C119.339 36.6852 119.119 36.068 118.947 35.3397C118.947 35.3027 118.935 35.2657 118.923 35.2287C118.763 34.414 118.69 33.5746 118.69 32.7106C118.69 32.6612 118.69 32.6241 118.69 32.5748C118.69 32.5377 118.69 32.4884 118.69 32.4513C118.69 32.3896 118.69 32.3156 118.69 32.2538C118.69 32.2292 118.69 32.2045 118.69 32.1798C118.69 32.1181 118.69 32.0563 118.69 31.9946C118.69 31.9329 118.69 31.8835 118.69 31.8218C118.69 31.7848 118.69 31.7354 118.69 31.6984C118.69 31.612 118.702 31.5379 118.714 31.4515C118.714 31.4145 118.714 31.3774 118.714 31.3528C118.714 31.3034 118.714 31.254 118.727 31.2046C118.825 30.4393 118.996 29.7481 119.253 29.1062C119.694 27.9336 120.38 27.1189 121.299 26.6375C121.642 26.477 122.01 26.3659 122.389 26.3042C122.634 26.2672 122.879 26.2548 123.112 26.2548C123.345 26.2548 123.59 26.2795 123.835 26.3042C124.215 26.3659 124.582 26.477 124.925 26.6375C125.856 27.1066 126.53 27.9336 126.971 29.1062C127.228 29.7357 127.4 30.4393 127.498 31.2046C127.498 31.254 127.51 31.3034 127.51 31.3528C127.51 31.3898 127.51 31.4268 127.51 31.4515C127.51 31.5379 127.522 31.612 127.534 31.6984C127.534 31.7354 127.534 31.7848 127.534 31.8218C127.534 31.8835 127.534 31.9329 127.534 31.9946C127.534 32.0563 127.534 32.1181 127.534 32.1798C127.534 32.2045 127.534 32.2292 127.534 32.2538C127.534 32.3156 127.534 32.3896 127.534 32.4513C127.534 32.4884 127.534 32.5377 127.534 32.5748C127.534 32.6241 127.534 32.6612 127.534 32.7106C127.534 33.5746 127.461 34.414 127.302 35.2287H127.449Z" fill="white"/>
</svg>
