<svg width="125" height="48" viewBox="0 0 125 48" fill="none" xmlns="http://www.w3.org/2000/svg">
<path d="M59.7054 20.4125C59.6306 20.3335 59.5936 20.2156 59.5936 20.0588V12.0973C59.5936 11.9311 59.6306 11.8088 59.7054 11.7297C59.7795 11.6514 59.9045 11.6118 60.0798 11.6118H63.4433C64.5207 11.6118 65.3198 11.8677 65.8412 12.3795C66.362 12.8912 66.6227 13.6231 66.6227 14.5763C66.6227 15.5296 66.362 16.2464 65.8412 16.7538C65.3198 17.2611 64.5207 17.5145 63.4433 17.5145H61.2753V20.0588C61.2753 20.2162 61.2376 20.3341 61.1635 20.4125C61.0887 20.4915 60.9599 20.5304 60.7759 20.5304H60.0798C59.9045 20.5304 59.7795 20.4909 59.7054 20.4125ZM63.3648 16.2414C63.8988 16.2414 64.2977 16.104 64.5603 15.8281C64.8229 15.5528 64.9548 15.1351 64.9548 14.5757C64.9548 14.0163 64.8235 13.5855 64.5603 13.3101C64.2977 13.0348 63.8988 12.8969 63.3648 12.8969H61.2759V16.2414H63.3648Z" fill="white"/>
<path d="M71.1773 20.4125C71.1025 20.3335 71.0654 20.2156 71.0654 20.0588V12.0973C71.0654 11.9311 71.1025 11.8088 71.1773 11.7297C71.2514 11.6514 71.3764 11.6118 71.5517 11.6118H74.9805C75.9964 11.6118 76.7697 11.8483 77.2999 12.3199C77.8295 12.7921 78.0946 13.492 78.0946 14.4189C78.0946 15.031 77.9501 15.5534 77.6611 15.9861C77.3722 16.4189 76.9519 16.745 76.3997 16.9632L77.8578 20.1899C77.8842 20.2419 77.8974 20.2902 77.8974 20.3341C77.8974 20.4652 77.8188 20.531 77.6611 20.531H76.5837C76.47 20.531 76.3865 20.516 76.3343 20.4852C76.2816 20.4545 76.2332 20.3912 76.1898 20.2952L74.863 17.1865H72.7478V20.0588C72.7478 20.2162 72.7101 20.3341 72.636 20.4125C72.5612 20.4915 72.4325 20.5304 72.2484 20.5304H71.5523C71.377 20.5304 71.252 20.4909 71.1779 20.4125H71.1773ZM74.6394 15.9266C75.2525 15.9266 75.7036 15.8087 75.9926 15.5729C76.2816 15.3371 76.4261 14.952 76.4261 14.4189C76.4261 13.8859 76.2948 13.5096 76.0315 13.2644C75.7689 13.0198 75.37 12.8975 74.836 12.8975H72.7472V15.9272H74.6394V15.9266Z" fill="white"/>
<path d="M83.6992 19.5066C82.924 18.6932 82.5364 17.548 82.5364 16.0705C82.5364 14.5929 82.924 13.4471 83.6992 12.6337C84.4744 11.8203 85.5845 11.414 87.03 11.414C88.4756 11.414 89.5743 11.8203 90.3539 12.6337C91.1336 13.4471 91.5231 14.5929 91.5231 16.0705C91.5231 17.548 91.1329 18.6938 90.3539 19.5066C89.5743 20.32 88.4661 20.7263 87.03 20.7263C85.5939 20.7263 84.4744 20.32 83.6992 19.5066ZM89.1321 18.6217C89.6139 18.0403 89.8545 17.1899 89.8545 16.0705C89.8545 14.951 89.6133 14.1031 89.1321 13.5262C88.6502 12.9492 87.9497 12.6601 87.03 12.6601C86.1103 12.6601 85.4073 12.9486 84.9211 13.5262C84.4348 14.1031 84.1917 14.9516 84.1917 16.0705C84.1917 17.1893 84.4348 18.0403 84.9211 18.6217C85.4073 19.203 86.1103 19.494 87.03 19.494C87.9497 19.494 88.6502 19.2037 89.1321 18.6217Z" fill="white"/>
<path d="M62.9526 36.2041C62.8955 36.1602 62.8408 36.073 62.788 35.942L59.3718 27.7183C59.3454 27.6656 59.3322 27.6136 59.3322 27.5609C59.3322 27.5 59.3517 27.4492 59.3912 27.4104C59.4308 27.3709 59.4855 27.3514 59.5552 27.3514H60.6854C60.7991 27.3514 60.887 27.3734 60.948 27.4173C61.0095 27.4612 61.0573 27.5308 61.0925 27.6274L63.5758 33.9232L66.0592 27.6274C66.0944 27.5314 66.1421 27.4612 66.2037 27.4173C66.2646 27.3734 66.3526 27.3514 66.4663 27.3514H67.5964C67.6662 27.3514 67.7215 27.3709 67.7604 27.4104C67.8 27.4499 67.8195 27.5 67.8195 27.5609C67.8195 27.6136 67.8063 27.6656 67.7799 27.7183L64.3768 35.942C64.324 36.073 64.2675 36.1608 64.2059 36.2041C64.1444 36.248 64.0526 36.2693 63.9301 36.2693H63.2209C63.0977 36.2693 63.0085 36.248 62.9514 36.2041H62.9526Z" fill="white"/>
<path d="M72.4389 36.1515C72.3641 36.0724 72.327 35.9545 72.327 35.7978V27.8362C72.327 27.67 72.3641 27.5477 72.4389 27.4687C72.513 27.3903 72.638 27.3508 72.8133 27.3508H78.2788C78.4541 27.3508 78.5747 27.3859 78.64 27.4555C78.706 27.5258 78.7386 27.6437 78.7386 27.8099V28.1636C78.7386 28.3298 78.706 28.4502 78.64 28.5242C78.5741 28.5982 78.4541 28.6358 78.2788 28.6358H74.0088V31.1801H77.1097C77.2849 31.1801 77.4074 31.2152 77.4778 31.2849C77.5475 31.3551 77.5834 31.473 77.5834 31.6386V31.9666C77.5834 32.1328 77.5482 32.2532 77.4778 32.3272C77.4074 32.4018 77.2849 32.4388 77.1097 32.4388H74.0088V34.9963H78.2656C78.4409 34.9963 78.5634 35.0339 78.6337 35.1079C78.7035 35.1825 78.7386 35.3023 78.7386 35.4685V35.8228C78.7386 35.9803 78.7035 36.0938 78.6337 36.164C78.5634 36.2342 78.4409 36.2687 78.2656 36.2687H72.8133C72.638 36.2687 72.513 36.2292 72.4389 36.1508V36.1515Z" fill="white"/>
<path d="M83.4228 36.1515C83.348 36.0724 83.3109 35.9545 83.3109 35.7978V27.8362C83.3109 27.67 83.348 27.5477 83.4228 27.4687C83.4969 27.3903 83.6219 27.3508 83.7972 27.3508H86.425C87.9051 27.3508 89.0372 27.7051 89.8212 28.4132C90.6052 29.1212 90.9972 30.2538 90.9972 31.8104C90.9972 34.7837 89.4732 36.27 86.425 36.27H83.7972C83.6219 36.27 83.4969 36.2305 83.4228 36.1521V36.1515ZM86.5306 34.9975C87.4591 34.9975 88.1577 34.7573 88.6263 34.2763C89.095 33.7953 89.3293 32.9731 89.3293 31.8104C89.3293 30.6477 89.095 29.828 88.6263 29.3514C88.1577 28.8748 87.4591 28.6365 86.5306 28.6365H84.9933V34.9975H86.5306Z" fill="white"/>
<path d="M96.6015 35.2465C95.8263 34.4331 95.4387 33.2879 95.4387 31.8104C95.4387 30.3328 95.8263 29.1871 96.6015 28.3737C97.3768 27.5603 98.4868 27.1539 99.9324 27.1539C101.378 27.1539 102.477 27.5603 103.256 28.3737C104.036 29.1871 104.425 30.3328 104.425 31.8104C104.425 33.2879 104.035 34.4337 103.256 35.2465C102.477 36.0599 101.368 36.4663 99.9324 36.4663C98.4962 36.4663 97.3768 36.0599 96.6015 35.2465ZM102.034 34.361C102.516 33.7796 102.757 32.9292 102.757 31.8098C102.757 30.6903 102.516 29.8424 102.034 29.2654C101.553 28.6885 100.852 28.3994 99.9324 28.3994C99.0126 28.3994 98.3097 28.6879 97.8234 29.2654C97.3372 29.8424 97.0941 30.6909 97.0941 31.8098C97.0941 32.9286 97.3372 33.7796 97.8234 34.361C98.3097 34.9423 99.0126 35.2333 99.9324 35.2333C100.852 35.2333 101.553 34.9429 102.034 34.361Z" fill="white"/>
<path d="M109.241 36.1515C109.166 36.0724 109.129 35.9545 109.129 35.7978V27.8362C109.129 27.67 109.166 27.5477 109.241 27.4687C109.315 27.3903 109.44 27.3508 109.615 27.3508H113.044C114.06 27.3508 114.833 27.5872 115.363 28.0589C115.893 28.5311 116.157 29.231 116.157 30.1579C116.157 30.77 116.013 31.2924 115.724 31.7251C115.435 32.1578 115.015 32.484 114.462 32.7022L115.921 35.9288C115.947 35.9809 115.96 36.0292 115.96 36.0731C115.96 36.2041 115.882 36.27 115.724 36.27H114.646C114.532 36.27 114.449 36.2549 114.397 36.2242C114.344 36.1935 114.296 36.1301 114.253 36.0342L112.926 32.9255H110.811V35.7978C110.811 35.9552 110.773 36.0731 110.699 36.1515C110.624 36.2305 110.495 36.2694 110.311 36.2694H109.614C109.439 36.2694 109.314 36.2299 109.24 36.1515H109.241ZM112.702 31.6655C113.315 31.6655 113.767 31.5476 114.056 31.3118C114.345 31.076 114.489 30.691 114.489 30.1579C114.489 29.6248 114.358 29.2485 114.095 29.0033C113.832 28.7587 113.434 28.6365 112.899 28.6365H110.811V31.6662H112.702V31.6655Z" fill="white"/>
<path d="M0 0V48H48.0828V0H0ZM14.5534 30.2501H11.1158C11.1158 30.2501 11.1164 22.9809 11.1245 19.5856C11.1271 18.495 11.8395 17.7876 12.9294 17.7587C13.2957 17.7487 14.5515 17.7575 14.5515 17.7575L14.5528 18.2811C14.5528 18.2811 14.554 21.8157 14.554 23.583C14.554 23.7215 14.554 23.8608 14.554 23.9994C14.554 25.9052 14.5553 28.3442 14.5528 30.2501H14.5534ZM26.5757 30.2469L23.1946 30.2488L21.1428 26.8196C21.1428 26.8196 19.6602 29.3407 19.1375 30.2488L15.154 30.2507L15.4216 29.7854C16.5279 27.9748 19.0288 23.8244 19.0288 23.8244L15.1112 17.7568C15.1112 17.7568 16.6579 17.7568 17.1636 17.7568C17.6819 17.7568 18.7191 17.7543 18.7191 17.7543L19.1375 17.7568L21.1428 21.2174C21.1428 21.2174 22.1385 19.521 22.4803 18.8738C22.8892 18.0999 23.5043 17.728 24.3825 17.7518C25.1031 17.7712 27.1586 17.7568 27.1586 17.7568L23.2411 23.8244L27.1272 30.2488L26.5757 30.2469ZM28.9114 24.2026C28.9535 24.8843 29.0402 25.5572 29.365 26.1781C29.7878 26.9858 30.688 27.4675 31.6429 27.379C32.697 27.2812 33.2731 26.7983 33.5514 25.7786C33.5715 25.7058 33.6036 25.5578 33.6036 25.5578C33.6036 25.5578 33.6563 25.2982 33.6563 25.2204H33.9981L33.9949 25.2229L36.6492 25.2198L36.9671 25.221C36.9671 25.4073 36.9451 25.5929 36.9287 25.7779C36.9118 25.9661 36.8911 26.1548 36.8609 26.3411C36.6014 27.9215 35.8086 29.1256 34.3637 29.8775C33.6915 30.2275 32.9339 30.415 32.185 30.5116C30.6214 30.7129 28.9755 30.4006 27.6951 29.4486C26.7233 28.7261 26.1139 27.6531 25.7954 26.501C25.4028 25.0793 25.3839 23.6331 25.644 22.1876C25.8268 21.1735 26.2006 20.1807 26.8646 19.3805C27.7982 18.2554 29.2104 17.6452 30.6365 17.4777C31.1152 17.4213 31.5995 17.4144 32.0789 17.4552C32.3057 17.4746 32.5268 17.5135 32.7511 17.5511C32.9634 17.5869 33.1739 17.632 33.3818 17.6872C33.5791 17.7399 33.7744 17.8026 33.9654 17.876C34.147 17.9456 34.3254 18.0252 34.4975 18.1156C34.6634 18.2021 34.8242 18.298 34.9787 18.404C35.1289 18.5069 35.2721 18.6191 35.4084 18.7402C35.5423 18.8593 35.6685 18.9873 35.786 19.1221C35.9035 19.2569 36.0122 19.3999 36.1114 19.5486C36.2119 19.6991 36.303 19.8565 36.3847 20.0183C36.4683 20.1845 36.5418 20.3551 36.6058 20.5294C36.6718 20.71 36.7277 20.8944 36.7742 21.0807C36.8226 21.2751 36.8609 21.472 36.8898 21.6708C36.9243 21.9091 36.9413 22.1474 36.9551 22.3876C36.9595 22.4679 36.9639 22.5475 36.9677 22.6278L36.5141 22.6341C36.5141 22.6341 35.5787 22.6335 35.1113 22.631C34.3254 22.6272 33.7104 22.318 33.351 21.5993C33.0708 21.038 32.621 20.7671 32.0091 20.6849C30.443 20.4748 29.4297 21.1402 29.059 22.6617C28.9365 23.1653 28.8806 23.6827 28.912 24.2007L28.9114 24.2026Z" fill="white"/>
<path d="M112.158 15.8792H97.6728C97.3266 15.8792 97.0459 16.1594 97.0459 16.5051V16.6487C97.0459 16.9944 97.3266 17.2746 97.6728 17.2746H112.158C112.504 17.2746 112.785 16.9944 112.785 16.6487V16.5051C112.785 16.1594 112.504 15.8792 112.158 15.8792Z" fill="white"/>
<path d="M124.299 13.6108C124.299 14.9334 123.266 15.9707 121.941 15.9707C120.615 15.9707 119.597 14.9334 119.597 13.624C119.597 12.3145 120.616 11.2772 121.954 11.2772C123.292 11.2772 124.298 12.2875 124.298 13.6108H124.299ZM123.846 13.6108C123.846 12.5271 123.053 11.7093 121.955 11.7093C120.856 11.7093 120.057 12.5472 120.057 13.624C120.057 14.7008 120.856 15.5386 121.941 15.5386C123.027 15.5386 123.846 14.6945 123.846 13.6108H123.846ZM122.693 14.0492L123.259 14.9134H122.567L122.081 14.169H121.622V14.9134H120.929V12.334H122.055C122.761 12.334 123.18 12.6927 123.18 13.2515C123.18 13.6302 123.007 13.9031 122.694 14.0492H122.693ZM122.008 13.6503C122.321 13.6503 122.501 13.5042 122.501 13.2515C122.501 12.9987 122.321 12.8457 122.008 12.8457H121.615V13.6503H122.008Z" fill="white"/>
</svg>
